#!OML:ASF F:\VICON\USERDATA\INSTALL\rory3\rory3.ASF
:FULLY-SPECIFIED
:DEGREES
152
root -0.18959 18.0336 40.2189 3.0634 -2.51939 -1.73237
lowerback 11.8632 -0.925638 -1.75976
upperback -1.25126 -1.3401 1.90942
thorax -7.91688 -0.528267 3.27265
lowerneck -19.6588 -2.28707 -2.9881
upperneck 11.4759 -2.93038 4.02632
head 6.81035 -1.17707 1.46012
rclavicle -8.12532e-015 2.98177e-014
rhumerus -60.0629 13.1619 -101.281
rradius 104.425
rwrist -12.4296
rhand -18.4349 36.5718
rfingers 7.12502
rthumb 7.85063 6.73752
lclavicle -8.12532e-015 2.98177e-014
lhumerus -32.636 -13.1889 94.1791
lradius 118.123
lwrist 31.0566
lhand -27.8004 3.30926
lfingers 7.12502
lthumb -1.1931 33.2857
rfemur -39.8807 4.48234 22.8546
rtibia 55.2122
rfoot -7.32582 -2.45474
rtoes -9.73843
lfemur 12.5518 0.388381 -26.9545
ltibia 27.2143
lfoot 16.3211 -14.728
ltoes -22.5638
153
root -0.179073 18.117 40.7315 3.38082 -2.88734 -1.72717
lowerback 11.4724 -0.946961 -1.70464
upperback -1.38187 -1.34898 2.01006
thorax -7.8321 -0.533139 3.3414
lowerneck -20.0878 -2.31521 -3.08943
upperneck 11.821 -2.92136 3.90951
head 6.99234 -1.18098 1.43729
rclavicle -1.20016e-014 1.23246e-014
rhumerus -61.1761 12.4047 -100.836
rradius 104.94
rwrist -12.2011
rhand -18.3579 36.6777
rfingers 7.12502
rthumb 7.92489 6.84629
lclavicle -1.20016e-014 1.23246e-014
lhumerus -32.0918 -13.5607 93.6123
lradius 117.952
lwrist 31.145
lhand -27.8963 2.81177
lfingers 7.12502
lthumb -1.28577 32.7876
rfemur -39.5856 5.41193 22.7605
rtibia 50.6432
rfoot -6.91925 -2.09607
rtoes -11.4553
lfemur 13.6406 -0.324476 -27.1074
ltibia 25.7993
lfoot 20.6851 -15.3611
ltoes -18.4914
154
root -0.164425 18.1792 41.2363 3.63998 -2.92301 -1.51486
lowerback 11.2029 -1.09051 -1.74791
upperback -1.6372 -1.54178 2.03196
thorax -7.93745 -0.619962 3.42116
lowerneck -20.1433 -2.32974 -3.07841
upperneck 12.1235 -2.92473 3.74818
head 7.09766 -1.19489 1.38202
rclavicle 1.24489e-014 -2.16675e-014
rhumerus -62.6614 11.6183 -100.489
rradius 105.578
rwrist -12.0158
rhand -18.5251 37.0013
rfingers 7.12502
rthumb 7.76357 7.1638
lclavicle 1.24489e-014 -2.16675e-014
lhumerus -31.8083 -13.869 93.0409
lradius 117.625
lwrist 31.2469
lhand -28.1304 1.76963
lfingers 7.12502
lthumb -1.51187 31.744
rfemur -39.2258 5.89083 22.4756
rtibia 46.2565
rfoot -6.57713 -1.96844
rtoes -15.2082
lfemur 14.658 -1.34109 -27.5108
ltibia 24.7602
lfoot 24.2622 -16.6958
ltoes -15.7127
155
root -0.145593 18.246 41.762 3.49493 -2.83264 -0.660355
lowerback 10.9077 -1.2171 -2.31268
upperback -2.03381 -1.80005 1.85305
thorax -8.1665 -0.714631 3.59577
lowerneck -18.7668 -2.2849 -3.31692
upperneck 12.0403 -2.83244 3.72266
head 6.84277 -1.18038 1.4306
rclavicle 3.23771e-014 1.96797e-014
rhumerus -64.7362 10.6446 -100.195
rradius 106.126
rwrist -12.1792
rhand -18.5101 37.2566
rfingers 7.12502
rthumb 7.77805 7.41965
lclavicle 3.23771e-014 1.96797e-014
lhumerus -32.4329 -14.0756 92.8373
lradius 117.396
lwrist 30.9812
lhand -28.2136 1.69007
lfingers 7.12502
lthumb -1.59226 31.6639
rfemur -38.2265 5.73431 21.6191
rtibia 41.9662
rfoot -6.31478 -1.59086
rtoes -18.3386
lfemur 15.8526 -2.3457 -28.634
ltibia 24.3825
lfoot 26.6262 -18.2883
ltoes -14.7207
156
root -0.132061 18.293 42.2727 3.46157 -2.8678 -0.183082
lowerback 10.6783 -1.30302 -2.66491
upperback -1.76721 -1.96232 1.79938
thorax -7.72547 -0.792947 3.74856
lowerneck -19.6355 -2.21689 -3.28384
upperneck 12.1375 -2.69266 3.52514
head 7.00923 -1.12018 1.37217
rclavicle 3.516e-014 -4.37326e-015
rhumerus -65.0367 9.96438 -99.6794
rradius 106.464
rwrist -12.2705
rhand -18.2339 37.3273
rfingers 7.12502
rthumb 8.04458 7.50038
lclavicle 3.516e-014 -4.37326e-015
lhumerus -31.2316 -14.2752 92.1691
lradius 116.749
lwrist 30.6291
lhand -28.2467 1.87125
lfingers 7.12502
lthumb -1.62416 31.8448
rfemur -37.3397 5.79882 21.1783
rtibia 37.8362
rfoot -5.57774 -1.43561
rtoes -17.8689
lfemur 16.5593 -3.23678 -29.3639
ltibia 24.6592
lfoot 28.5348 -18.757
ltoes -11.4782
157
root -0.125613 18.3291 42.7505 3.68604 -2.95049 -0.367214
lowerback 10.6363 -1.35738 -2.43664
upperback -1.79914 -1.99493 1.91236
thorax -7.73628 -0.815731 3.74437
lowerneck -20.0011 -2.25306 -3.30082
upperneck 12.2253 -2.71488 3.44772
head 7.09802 -1.13483 1.34499
rclavicle -1.14301e-014 -1.11319e-014
rhumerus -65.6584 9.22327 -99.2398
rradius 106.834
rwrist -12.2765
rhand -18.35 37.5212
rfingers 7.12502
rthumb 7.93249 7.69007
lclavicle -1.14301e-014 -1.11319e-014
lhumerus -30.5615 -14.3763 91.6087
lradius 116.092
lwrist 30.2025
lhand -28.0949 2.05463
lfingers 7.12502
lthumb -1.47754 32.0293
rfemur -36.7919 6.39878 21.379
rtibia 33.9545
rfoot -4.54211 -2.03537
rtoes -16.331
lfemur 16.6651 -3.97783 -29.2672
ltibia 25.4468
lfoot 30.1353 -18.987
ltoes -6.04716
158
root -0.109465 18.3557 43.2357 3.70142 -2.34555 -0.730052
lowerback 10.7921 -1.62685 -1.63105
upperback -1.9362 -2.24406 1.95119
thorax -7.98074 -0.965833 3.38292
lowerneck -19.6348 -2.16526 -3.16375
upperneck 12.0317 -2.60654 3.25158
head 6.96556 -1.09908 1.27314
rclavicle -1.59276e-014 -9.54166e-015
rhumerus -66.5049 8.25703 -98.9295
rradius 107.007
rwrist -12.201
rhand -18.4927 37.7937
rfingers 7.12502
rthumb 7.79477 7.95739
lclavicle -1.59276e-014 -9.54166e-015
lhumerus -30.4492 -14.5336 91.1884
lradius 115.462
lwrist 30.0108
lhand -27.7791 1.62031
lfingers 7.12502
lthumb -1.17257 31.5968
rfemur -36.0107 6.45928 21.7935
rtibia 30.6311
rfoot -3.83587 -2.96362
rtoes -15.8516
lfemur 16.6093 -5.11466 -28.8974
ltibia 27.2989
lfoot 30.2747 -20.5492
ltoes -4.96616
159
root -0.0930201 18.3672 43.7246 3.66712 -1.59884 -0.63327
lowerback 10.8241 -1.86432 -1.2059
upperback -1.94968 -2.51052 1.85092
thorax -8.01753 -1.11702 3.08353
lowerneck -19.1219 -2.01467 -3.23588
upperneck 11.2732 -2.39629 3.35053
head 6.62954 -0.99962 1.34325
rclavicle -4.42296e-015 -2.62396e-014
rhumerus -67.1257 7.12142 -98.461
rradius 107.307
rwrist -12.1445
rhand -18.6788 37.9937
rfingers 7.12502
rthumb 7.61515 8.15084
lclavicle -4.42296e-015 -2.62396e-014
lhumerus -30.0848 -14.6506 90.8772
lradius 114.742
lwrist 29.5487
lhand -27.5231 2.40649
lfingers 7.12502
lthumb -0.925283 32.3842
rfemur -34.6965 6.31504 21.701
rtibia 26.4954
rfoot -2.64783 -4.03147
rtoes -11.4791
lfemur 16.1743 -6.25235 -28.9499
ltibia 29.9761
lfoot 29.3382 -22.9415
ltoes -6.80665
